<mxfile host="app.diagrams.net" modified="2021-12-17T07:47:00.984Z" agent="5.0 (Macintosh; Intel Mac OS X 10_15_7) AppleWebKit/537.36 (KHTML, like Gecko) Chrome/96.0.4664.93 Safari/537.36" etag="XksWctGd_gXYcO5dT0RA" version="15.9.6" type="github">
  <diagram id="_VA_VfumOzAxNF2vHOdF" name="Page-1">
    <mxGraphModel dx="1426" dy="712" grid="1" gridSize="10" guides="1" tooltips="1" connect="1" arrows="1" fold="1" page="1" pageScale="1" pageWidth="827" pageHeight="1169" math="0" shadow="0">
      <root>
        <mxCell id="0" />
        <mxCell id="1" parent="0" />
        <mxCell id="GvEmHx2ohg-FqytH7qWI-185" value="" style="rounded=0;whiteSpace=wrap;html=1;fontSize=16;fillColor=#f9f7ed;strokeColor=#36393d;" vertex="1" parent="1">
          <mxGeometry x="80" y="10" width="1000" height="430" as="geometry" />
        </mxCell>
        <mxCell id="GvEmHx2ohg-FqytH7qWI-1" value="" style="ellipse;whiteSpace=wrap;html=1;aspect=fixed;fontSize=16;fillColor=#dae8fc;strokeColor=#6c8ebf;" vertex="1" parent="1">
          <mxGeometry x="577.8873239436621" y="55.119268292682925" width="35.563380281690144" height="35.563380281690144" as="geometry" />
        </mxCell>
        <mxCell id="GvEmHx2ohg-FqytH7qWI-2" value="" style="ellipse;whiteSpace=wrap;html=1;aspect=fixed;fontSize=16;fillColor=#dae8fc;strokeColor=#6c8ebf;" vertex="1" parent="1">
          <mxGeometry x="264.92957746478874" y="195.6070731707317" width="35.563380281690144" height="35.563380281690144" as="geometry" />
        </mxCell>
        <mxCell id="GvEmHx2ohg-FqytH7qWI-7" style="edgeStyle=none;rounded=0;orthogonalLoop=1;jettySize=auto;html=1;entryX=0.5;entryY=0;entryDx=0;entryDy=0;exitX=0.5;exitY=1;exitDx=0;exitDy=0;fontSize=16;fillColor=#dae8fc;strokeColor=#6c8ebf;" edge="1" parent="1" source="GvEmHx2ohg-FqytH7qWI-1" target="GvEmHx2ohg-FqytH7qWI-2">
          <mxGeometry relative="1" as="geometry" />
        </mxCell>
        <mxCell id="GvEmHx2ohg-FqytH7qWI-3" value="" style="ellipse;whiteSpace=wrap;html=1;aspect=fixed;fontSize=16;fillColor=#dae8fc;strokeColor=#6c8ebf;" vertex="1" parent="1">
          <mxGeometry x="577.8873239436621" y="195.6070731707317" width="35.563380281690144" height="35.563380281690144" as="geometry" />
        </mxCell>
        <mxCell id="GvEmHx2ohg-FqytH7qWI-5" style="rounded=0;orthogonalLoop=1;jettySize=auto;html=1;fontSize=16;fillColor=#dae8fc;strokeColor=#6c8ebf;" edge="1" parent="1" source="GvEmHx2ohg-FqytH7qWI-1" target="GvEmHx2ohg-FqytH7qWI-3">
          <mxGeometry relative="1" as="geometry" />
        </mxCell>
        <mxCell id="GvEmHx2ohg-FqytH7qWI-4" value="" style="ellipse;whiteSpace=wrap;html=1;aspect=fixed;fontSize=16;fillColor=#dae8fc;strokeColor=#6c8ebf;" vertex="1" parent="1">
          <mxGeometry x="890.8450704225353" y="195.6070731707317" width="35.563380281690144" height="35.563380281690144" as="geometry" />
        </mxCell>
        <mxCell id="GvEmHx2ohg-FqytH7qWI-6" style="edgeStyle=none;rounded=0;orthogonalLoop=1;jettySize=auto;html=1;entryX=0.5;entryY=0;entryDx=0;entryDy=0;exitX=0.5;exitY=1;exitDx=0;exitDy=0;fontSize=16;fillColor=#dae8fc;strokeColor=#6c8ebf;" edge="1" parent="1" source="GvEmHx2ohg-FqytH7qWI-1" target="GvEmHx2ohg-FqytH7qWI-4">
          <mxGeometry relative="1" as="geometry" />
        </mxCell>
        <mxCell id="GvEmHx2ohg-FqytH7qWI-16" value="" style="ellipse;whiteSpace=wrap;html=1;aspect=fixed;fontSize=16;fillColor=#dae8fc;strokeColor=#6c8ebf;" vertex="1" parent="1">
          <mxGeometry x="264.92957746478874" y="299.0675609756097" width="35.563380281690144" height="35.563380281690144" as="geometry" />
        </mxCell>
        <mxCell id="GvEmHx2ohg-FqytH7qWI-20" style="edgeStyle=none;rounded=0;orthogonalLoop=1;jettySize=auto;html=1;entryX=0.5;entryY=0;entryDx=0;entryDy=0;fontSize=16;fillColor=#dae8fc;strokeColor=#6c8ebf;" edge="1" parent="1" source="GvEmHx2ohg-FqytH7qWI-2" target="GvEmHx2ohg-FqytH7qWI-16">
          <mxGeometry relative="1" as="geometry" />
        </mxCell>
        <mxCell id="GvEmHx2ohg-FqytH7qWI-17" value="" style="ellipse;whiteSpace=wrap;html=1;aspect=fixed;fontSize=16;fillColor=#dae8fc;strokeColor=#6c8ebf;" vertex="1" parent="1">
          <mxGeometry x="165.35211267605635" y="299.0675609756097" width="35.563380281690144" height="35.563380281690144" as="geometry" />
        </mxCell>
        <mxCell id="GvEmHx2ohg-FqytH7qWI-19" style="edgeStyle=none;rounded=0;orthogonalLoop=1;jettySize=auto;html=1;entryX=0.5;entryY=0;entryDx=0;entryDy=0;exitX=0.5;exitY=1;exitDx=0;exitDy=0;fontSize=16;fillColor=#dae8fc;strokeColor=#6c8ebf;" edge="1" parent="1" source="GvEmHx2ohg-FqytH7qWI-2" target="GvEmHx2ohg-FqytH7qWI-17">
          <mxGeometry relative="1" as="geometry" />
        </mxCell>
        <mxCell id="GvEmHx2ohg-FqytH7qWI-18" value="" style="ellipse;whiteSpace=wrap;html=1;aspect=fixed;fontSize=16;fillColor=#dae8fc;strokeColor=#6c8ebf;" vertex="1" parent="1">
          <mxGeometry x="364.50704225352115" y="299.0675609756097" width="35.563380281690144" height="35.563380281690144" as="geometry" />
        </mxCell>
        <mxCell id="GvEmHx2ohg-FqytH7qWI-21" style="edgeStyle=none;rounded=0;orthogonalLoop=1;jettySize=auto;html=1;entryX=0.5;entryY=0;entryDx=0;entryDy=0;exitX=0.5;exitY=1;exitDx=0;exitDy=0;fontSize=16;fillColor=#dae8fc;strokeColor=#6c8ebf;" edge="1" parent="1" source="GvEmHx2ohg-FqytH7qWI-2" target="GvEmHx2ohg-FqytH7qWI-18">
          <mxGeometry relative="1" as="geometry" />
        </mxCell>
        <mxCell id="GvEmHx2ohg-FqytH7qWI-22" style="edgeStyle=none;rounded=0;orthogonalLoop=1;jettySize=auto;html=1;exitX=1;exitY=0.5;exitDx=0;exitDy=0;fontSize=16;fillColor=#dae8fc;strokeColor=#6c8ebf;" edge="1" parent="1" source="GvEmHx2ohg-FqytH7qWI-16" target="GvEmHx2ohg-FqytH7qWI-16">
          <mxGeometry relative="1" as="geometry" />
        </mxCell>
        <mxCell id="GvEmHx2ohg-FqytH7qWI-58" value="" style="group;fontSize=16;" vertex="1" connectable="0" parent="1">
          <mxGeometry x="139.03521126760563" y="334.6341463414634" width="88.90845070422536" height="105.36585365853658" as="geometry" />
        </mxCell>
        <mxCell id="GvEmHx2ohg-FqytH7qWI-51" style="edgeStyle=none;rounded=0;orthogonalLoop=1;jettySize=auto;html=1;entryX=0.5;entryY=0;entryDx=0;entryDy=0;exitX=0.5;exitY=1;exitDx=0;exitDy=0;fontSize=16;fillColor=#dae8fc;strokeColor=#6c8ebf;" edge="1" parent="GvEmHx2ohg-FqytH7qWI-58" target="GvEmHx2ohg-FqytH7qWI-55">
          <mxGeometry relative="1" as="geometry">
            <mxPoint x="44.45422535211268" as="sourcePoint" />
          </mxGeometry>
        </mxCell>
        <mxCell id="GvEmHx2ohg-FqytH7qWI-52" style="edgeStyle=none;rounded=0;orthogonalLoop=1;jettySize=auto;html=1;entryX=0.5;entryY=0;entryDx=0;entryDy=0;fontSize=16;fillColor=#dae8fc;strokeColor=#6c8ebf;" edge="1" parent="GvEmHx2ohg-FqytH7qWI-58" target="GvEmHx2ohg-FqytH7qWI-54">
          <mxGeometry relative="1" as="geometry">
            <mxPoint x="44.45422535211268" as="sourcePoint" />
          </mxGeometry>
        </mxCell>
        <mxCell id="GvEmHx2ohg-FqytH7qWI-53" style="edgeStyle=none;rounded=0;orthogonalLoop=1;jettySize=auto;html=1;entryX=0.5;entryY=0;entryDx=0;entryDy=0;exitX=0.5;exitY=1;exitDx=0;exitDy=0;fontSize=16;fillColor=#dae8fc;strokeColor=#6c8ebf;" edge="1" parent="GvEmHx2ohg-FqytH7qWI-58" target="GvEmHx2ohg-FqytH7qWI-56">
          <mxGeometry relative="1" as="geometry">
            <mxPoint x="44.45422535211268" as="sourcePoint" />
          </mxGeometry>
        </mxCell>
        <mxCell id="GvEmHx2ohg-FqytH7qWI-54" value="" style="ellipse;whiteSpace=wrap;html=1;aspect=fixed;fontSize=16;fillColor=#dae8fc;strokeColor=#6c8ebf;" vertex="1" parent="GvEmHx2ohg-FqytH7qWI-58">
          <mxGeometry x="37.71873666239864" y="57.472283813747225" width="13.470977379428083" height="13.470977379428083" as="geometry" />
        </mxCell>
        <mxCell id="GvEmHx2ohg-FqytH7qWI-55" value="" style="ellipse;whiteSpace=wrap;html=1;aspect=fixed;fontSize=16;fillColor=#dae8fc;strokeColor=#6c8ebf;" vertex="1" parent="GvEmHx2ohg-FqytH7qWI-58">
          <mxGeometry y="57.472283813747225" width="13.470977379428083" height="13.470977379428083" as="geometry" />
        </mxCell>
        <mxCell id="GvEmHx2ohg-FqytH7qWI-56" value="" style="ellipse;whiteSpace=wrap;html=1;aspect=fixed;fontSize=16;fillColor=#dae8fc;strokeColor=#6c8ebf;" vertex="1" parent="GvEmHx2ohg-FqytH7qWI-58">
          <mxGeometry x="75.43747332479728" y="57.472283813747225" width="13.470977379428083" height="13.470977379428083" as="geometry" />
        </mxCell>
        <mxCell id="GvEmHx2ohg-FqytH7qWI-57" style="edgeStyle=none;rounded=0;orthogonalLoop=1;jettySize=auto;html=1;exitX=1;exitY=0.5;exitDx=0;exitDy=0;fontSize=16;fillColor=#dae8fc;strokeColor=#6c8ebf;" edge="1" parent="GvEmHx2ohg-FqytH7qWI-58" source="GvEmHx2ohg-FqytH7qWI-54" target="GvEmHx2ohg-FqytH7qWI-54">
          <mxGeometry relative="1" as="geometry" />
        </mxCell>
        <mxCell id="GvEmHx2ohg-FqytH7qWI-84" value="" style="group;fontSize=16;" vertex="1" connectable="0" parent="1">
          <mxGeometry x="238.25704225352115" y="334.6341463414634" width="88.90845070422536" height="105.36585365853658" as="geometry" />
        </mxCell>
        <mxCell id="GvEmHx2ohg-FqytH7qWI-85" style="edgeStyle=none;rounded=0;orthogonalLoop=1;jettySize=auto;html=1;entryX=0.5;entryY=0;entryDx=0;entryDy=0;exitX=0.5;exitY=1;exitDx=0;exitDy=0;fontSize=16;fillColor=#dae8fc;strokeColor=#6c8ebf;" edge="1" parent="GvEmHx2ohg-FqytH7qWI-84" target="GvEmHx2ohg-FqytH7qWI-89">
          <mxGeometry relative="1" as="geometry">
            <mxPoint x="44.45422535211268" as="sourcePoint" />
          </mxGeometry>
        </mxCell>
        <mxCell id="GvEmHx2ohg-FqytH7qWI-86" style="edgeStyle=none;rounded=0;orthogonalLoop=1;jettySize=auto;html=1;entryX=0.5;entryY=0;entryDx=0;entryDy=0;fontSize=16;fillColor=#dae8fc;strokeColor=#6c8ebf;" edge="1" parent="GvEmHx2ohg-FqytH7qWI-84" target="GvEmHx2ohg-FqytH7qWI-88">
          <mxGeometry relative="1" as="geometry">
            <mxPoint x="44.45422535211268" as="sourcePoint" />
          </mxGeometry>
        </mxCell>
        <mxCell id="GvEmHx2ohg-FqytH7qWI-87" style="edgeStyle=none;rounded=0;orthogonalLoop=1;jettySize=auto;html=1;entryX=0.5;entryY=0;entryDx=0;entryDy=0;exitX=0.5;exitY=1;exitDx=0;exitDy=0;fontSize=16;fillColor=#dae8fc;strokeColor=#6c8ebf;" edge="1" parent="GvEmHx2ohg-FqytH7qWI-84" target="GvEmHx2ohg-FqytH7qWI-90">
          <mxGeometry relative="1" as="geometry">
            <mxPoint x="44.45422535211268" as="sourcePoint" />
          </mxGeometry>
        </mxCell>
        <mxCell id="GvEmHx2ohg-FqytH7qWI-88" value="" style="ellipse;whiteSpace=wrap;html=1;aspect=fixed;fontSize=16;fillColor=#dae8fc;strokeColor=#6c8ebf;" vertex="1" parent="GvEmHx2ohg-FqytH7qWI-84">
          <mxGeometry x="37.71873666239864" y="57.472283813747225" width="13.470977379428083" height="13.470977379428083" as="geometry" />
        </mxCell>
        <mxCell id="GvEmHx2ohg-FqytH7qWI-89" value="" style="ellipse;whiteSpace=wrap;html=1;aspect=fixed;fontSize=16;fillColor=#dae8fc;strokeColor=#6c8ebf;" vertex="1" parent="GvEmHx2ohg-FqytH7qWI-84">
          <mxGeometry y="57.472283813747225" width="13.470977379428083" height="13.470977379428083" as="geometry" />
        </mxCell>
        <mxCell id="GvEmHx2ohg-FqytH7qWI-90" value="" style="ellipse;whiteSpace=wrap;html=1;aspect=fixed;fontSize=16;fillColor=#dae8fc;strokeColor=#6c8ebf;" vertex="1" parent="GvEmHx2ohg-FqytH7qWI-84">
          <mxGeometry x="75.43747332479728" y="57.472283813747225" width="13.470977379428083" height="13.470977379428083" as="geometry" />
        </mxCell>
        <mxCell id="GvEmHx2ohg-FqytH7qWI-91" style="edgeStyle=none;rounded=0;orthogonalLoop=1;jettySize=auto;html=1;exitX=1;exitY=0.5;exitDx=0;exitDy=0;fontSize=16;fillColor=#dae8fc;strokeColor=#6c8ebf;" edge="1" parent="GvEmHx2ohg-FqytH7qWI-84" source="GvEmHx2ohg-FqytH7qWI-88" target="GvEmHx2ohg-FqytH7qWI-88">
          <mxGeometry relative="1" as="geometry" />
        </mxCell>
        <mxCell id="GvEmHx2ohg-FqytH7qWI-101" value="" style="group;fontSize=16;" vertex="1" connectable="0" parent="1">
          <mxGeometry x="336.056338028169" y="334.6341463414634" width="88.90845070422536" height="105.36585365853658" as="geometry" />
        </mxCell>
        <mxCell id="GvEmHx2ohg-FqytH7qWI-102" style="edgeStyle=none;rounded=0;orthogonalLoop=1;jettySize=auto;html=1;entryX=0.5;entryY=0;entryDx=0;entryDy=0;exitX=0.5;exitY=1;exitDx=0;exitDy=0;fontSize=16;fillColor=#dae8fc;strokeColor=#6c8ebf;" edge="1" parent="GvEmHx2ohg-FqytH7qWI-101" target="GvEmHx2ohg-FqytH7qWI-106">
          <mxGeometry relative="1" as="geometry">
            <mxPoint x="44.45422535211268" as="sourcePoint" />
          </mxGeometry>
        </mxCell>
        <mxCell id="GvEmHx2ohg-FqytH7qWI-103" style="edgeStyle=none;rounded=0;orthogonalLoop=1;jettySize=auto;html=1;entryX=0.5;entryY=0;entryDx=0;entryDy=0;fontSize=16;fillColor=#dae8fc;strokeColor=#6c8ebf;" edge="1" parent="GvEmHx2ohg-FqytH7qWI-101" target="GvEmHx2ohg-FqytH7qWI-105">
          <mxGeometry relative="1" as="geometry">
            <mxPoint x="44.45422535211268" as="sourcePoint" />
          </mxGeometry>
        </mxCell>
        <mxCell id="GvEmHx2ohg-FqytH7qWI-104" style="edgeStyle=none;rounded=0;orthogonalLoop=1;jettySize=auto;html=1;entryX=0.5;entryY=0;entryDx=0;entryDy=0;exitX=0.5;exitY=1;exitDx=0;exitDy=0;fontSize=16;fillColor=#dae8fc;strokeColor=#6c8ebf;" edge="1" parent="GvEmHx2ohg-FqytH7qWI-101" target="GvEmHx2ohg-FqytH7qWI-107">
          <mxGeometry relative="1" as="geometry">
            <mxPoint x="44.45422535211268" as="sourcePoint" />
          </mxGeometry>
        </mxCell>
        <mxCell id="GvEmHx2ohg-FqytH7qWI-105" value="" style="ellipse;whiteSpace=wrap;html=1;aspect=fixed;fontSize=16;fillColor=#dae8fc;strokeColor=#6c8ebf;" vertex="1" parent="GvEmHx2ohg-FqytH7qWI-101">
          <mxGeometry x="37.71873666239864" y="57.472283813747225" width="13.470977379428083" height="13.470977379428083" as="geometry" />
        </mxCell>
        <mxCell id="GvEmHx2ohg-FqytH7qWI-106" value="" style="ellipse;whiteSpace=wrap;html=1;aspect=fixed;fontSize=16;fillColor=#dae8fc;strokeColor=#6c8ebf;" vertex="1" parent="GvEmHx2ohg-FqytH7qWI-101">
          <mxGeometry y="57.472283813747225" width="13.470977379428083" height="13.470977379428083" as="geometry" />
        </mxCell>
        <mxCell id="GvEmHx2ohg-FqytH7qWI-107" value="" style="ellipse;whiteSpace=wrap;html=1;aspect=fixed;fontSize=16;fillColor=#dae8fc;strokeColor=#6c8ebf;" vertex="1" parent="GvEmHx2ohg-FqytH7qWI-101">
          <mxGeometry x="75.43747332479728" y="57.472283813747225" width="13.470977379428083" height="13.470977379428083" as="geometry" />
        </mxCell>
        <mxCell id="GvEmHx2ohg-FqytH7qWI-108" style="edgeStyle=none;rounded=0;orthogonalLoop=1;jettySize=auto;html=1;exitX=1;exitY=0.5;exitDx=0;exitDy=0;fontSize=16;fillColor=#dae8fc;strokeColor=#6c8ebf;" edge="1" parent="GvEmHx2ohg-FqytH7qWI-101" source="GvEmHx2ohg-FqytH7qWI-105" target="GvEmHx2ohg-FqytH7qWI-105">
          <mxGeometry relative="1" as="geometry" />
        </mxCell>
        <mxCell id="GvEmHx2ohg-FqytH7qWI-117" style="edgeStyle=none;rounded=0;orthogonalLoop=1;jettySize=auto;html=1;entryX=0.5;entryY=0;entryDx=0;entryDy=0;exitX=0.5;exitY=1;exitDx=0;exitDy=0;fontSize=16;fillColor=#dae8fc;strokeColor=#6c8ebf;" edge="1" parent="1" target="GvEmHx2ohg-FqytH7qWI-121">
          <mxGeometry relative="1" as="geometry">
            <mxPoint x="596.3802816901409" y="228.82365853658536" as="sourcePoint" />
          </mxGeometry>
        </mxCell>
        <mxCell id="GvEmHx2ohg-FqytH7qWI-118" style="edgeStyle=none;rounded=0;orthogonalLoop=1;jettySize=auto;html=1;entryX=0.5;entryY=0;entryDx=0;entryDy=0;fontSize=16;fillColor=#dae8fc;strokeColor=#6c8ebf;" edge="1" parent="1" target="GvEmHx2ohg-FqytH7qWI-120">
          <mxGeometry relative="1" as="geometry">
            <mxPoint x="596.3802816901409" y="228.82365853658536" as="sourcePoint" />
          </mxGeometry>
        </mxCell>
        <mxCell id="GvEmHx2ohg-FqytH7qWI-119" style="edgeStyle=none;rounded=0;orthogonalLoop=1;jettySize=auto;html=1;entryX=0.5;entryY=0;entryDx=0;entryDy=0;exitX=0.5;exitY=1;exitDx=0;exitDy=0;fontSize=16;fillColor=#dae8fc;strokeColor=#6c8ebf;" edge="1" parent="1" target="GvEmHx2ohg-FqytH7qWI-122">
          <mxGeometry relative="1" as="geometry">
            <mxPoint x="596.3802816901409" y="228.82365853658536" as="sourcePoint" />
          </mxGeometry>
        </mxCell>
        <mxCell id="GvEmHx2ohg-FqytH7qWI-120" value="" style="ellipse;whiteSpace=wrap;html=1;aspect=fixed;fontSize=16;fillColor=#dae8fc;strokeColor=#6c8ebf;" vertex="1" parent="1">
          <mxGeometry x="578.5985915492959" y="299.0675609756097" width="35.563380281690144" height="35.563380281690144" as="geometry" />
        </mxCell>
        <mxCell id="GvEmHx2ohg-FqytH7qWI-121" value="" style="ellipse;whiteSpace=wrap;html=1;aspect=fixed;fontSize=16;fillColor=#dae8fc;strokeColor=#6c8ebf;" vertex="1" parent="1">
          <mxGeometry x="479.0211267605634" y="299.0675609756097" width="35.563380281690144" height="35.563380281690144" as="geometry" />
        </mxCell>
        <mxCell id="GvEmHx2ohg-FqytH7qWI-122" value="" style="ellipse;whiteSpace=wrap;html=1;aspect=fixed;fontSize=16;fillColor=#dae8fc;strokeColor=#6c8ebf;" vertex="1" parent="1">
          <mxGeometry x="678.1760563380282" y="299.0675609756097" width="35.563380281690144" height="35.563380281690144" as="geometry" />
        </mxCell>
        <mxCell id="GvEmHx2ohg-FqytH7qWI-123" style="edgeStyle=none;rounded=0;orthogonalLoop=1;jettySize=auto;html=1;exitX=1;exitY=0.5;exitDx=0;exitDy=0;fontSize=16;fillColor=#dae8fc;strokeColor=#6c8ebf;" edge="1" parent="1" source="GvEmHx2ohg-FqytH7qWI-120" target="GvEmHx2ohg-FqytH7qWI-120">
          <mxGeometry relative="1" as="geometry" />
        </mxCell>
        <mxCell id="GvEmHx2ohg-FqytH7qWI-124" value="" style="group;fontSize=16;" vertex="1" connectable="0" parent="1">
          <mxGeometry x="452.7042253521127" y="334.6341463414634" width="88.90845070422536" height="105.36585365853658" as="geometry" />
        </mxCell>
        <mxCell id="GvEmHx2ohg-FqytH7qWI-125" style="edgeStyle=none;rounded=0;orthogonalLoop=1;jettySize=auto;html=1;entryX=0.5;entryY=0;entryDx=0;entryDy=0;exitX=0.5;exitY=1;exitDx=0;exitDy=0;fontSize=16;fillColor=#dae8fc;strokeColor=#6c8ebf;" edge="1" parent="GvEmHx2ohg-FqytH7qWI-124" target="GvEmHx2ohg-FqytH7qWI-129">
          <mxGeometry relative="1" as="geometry">
            <mxPoint x="44.45422535211268" as="sourcePoint" />
          </mxGeometry>
        </mxCell>
        <mxCell id="GvEmHx2ohg-FqytH7qWI-126" style="edgeStyle=none;rounded=0;orthogonalLoop=1;jettySize=auto;html=1;entryX=0.5;entryY=0;entryDx=0;entryDy=0;fontSize=16;fillColor=#dae8fc;strokeColor=#6c8ebf;" edge="1" parent="GvEmHx2ohg-FqytH7qWI-124" target="GvEmHx2ohg-FqytH7qWI-128">
          <mxGeometry relative="1" as="geometry">
            <mxPoint x="44.45422535211268" as="sourcePoint" />
          </mxGeometry>
        </mxCell>
        <mxCell id="GvEmHx2ohg-FqytH7qWI-127" style="edgeStyle=none;rounded=0;orthogonalLoop=1;jettySize=auto;html=1;entryX=0.5;entryY=0;entryDx=0;entryDy=0;exitX=0.5;exitY=1;exitDx=0;exitDy=0;fontSize=16;fillColor=#dae8fc;strokeColor=#6c8ebf;" edge="1" parent="GvEmHx2ohg-FqytH7qWI-124" target="GvEmHx2ohg-FqytH7qWI-130">
          <mxGeometry relative="1" as="geometry">
            <mxPoint x="44.45422535211268" as="sourcePoint" />
          </mxGeometry>
        </mxCell>
        <mxCell id="GvEmHx2ohg-FqytH7qWI-128" value="" style="ellipse;whiteSpace=wrap;html=1;aspect=fixed;fontSize=16;fillColor=#dae8fc;strokeColor=#6c8ebf;" vertex="1" parent="GvEmHx2ohg-FqytH7qWI-124">
          <mxGeometry x="37.71873666239864" y="57.472283813747225" width="13.470977379428083" height="13.470977379428083" as="geometry" />
        </mxCell>
        <mxCell id="GvEmHx2ohg-FqytH7qWI-129" value="" style="ellipse;whiteSpace=wrap;html=1;aspect=fixed;fontSize=16;fillColor=#dae8fc;strokeColor=#6c8ebf;" vertex="1" parent="GvEmHx2ohg-FqytH7qWI-124">
          <mxGeometry y="57.472283813747225" width="13.470977379428083" height="13.470977379428083" as="geometry" />
        </mxCell>
        <mxCell id="GvEmHx2ohg-FqytH7qWI-130" value="" style="ellipse;whiteSpace=wrap;html=1;aspect=fixed;fontSize=16;fillColor=#dae8fc;strokeColor=#6c8ebf;" vertex="1" parent="GvEmHx2ohg-FqytH7qWI-124">
          <mxGeometry x="75.43747332479728" y="57.472283813747225" width="13.470977379428083" height="13.470977379428083" as="geometry" />
        </mxCell>
        <mxCell id="GvEmHx2ohg-FqytH7qWI-131" style="edgeStyle=none;rounded=0;orthogonalLoop=1;jettySize=auto;html=1;exitX=1;exitY=0.5;exitDx=0;exitDy=0;fontSize=16;fillColor=#dae8fc;strokeColor=#6c8ebf;" edge="1" parent="GvEmHx2ohg-FqytH7qWI-124" source="GvEmHx2ohg-FqytH7qWI-128" target="GvEmHx2ohg-FqytH7qWI-128">
          <mxGeometry relative="1" as="geometry" />
        </mxCell>
        <mxCell id="GvEmHx2ohg-FqytH7qWI-132" value="" style="group;fontSize=16;" vertex="1" connectable="0" parent="1">
          <mxGeometry x="551.9260563380283" y="334.6341463414634" width="88.90845070422536" height="105.36585365853658" as="geometry" />
        </mxCell>
        <mxCell id="GvEmHx2ohg-FqytH7qWI-133" style="edgeStyle=none;rounded=0;orthogonalLoop=1;jettySize=auto;html=1;entryX=0.5;entryY=0;entryDx=0;entryDy=0;exitX=0.5;exitY=1;exitDx=0;exitDy=0;fontSize=16;fillColor=#dae8fc;strokeColor=#6c8ebf;" edge="1" parent="GvEmHx2ohg-FqytH7qWI-132" target="GvEmHx2ohg-FqytH7qWI-137">
          <mxGeometry relative="1" as="geometry">
            <mxPoint x="44.45422535211268" as="sourcePoint" />
          </mxGeometry>
        </mxCell>
        <mxCell id="GvEmHx2ohg-FqytH7qWI-134" style="edgeStyle=none;rounded=0;orthogonalLoop=1;jettySize=auto;html=1;entryX=0.5;entryY=0;entryDx=0;entryDy=0;fontSize=16;fillColor=#dae8fc;strokeColor=#6c8ebf;" edge="1" parent="GvEmHx2ohg-FqytH7qWI-132" target="GvEmHx2ohg-FqytH7qWI-136">
          <mxGeometry relative="1" as="geometry">
            <mxPoint x="44.45422535211268" as="sourcePoint" />
          </mxGeometry>
        </mxCell>
        <mxCell id="GvEmHx2ohg-FqytH7qWI-135" style="edgeStyle=none;rounded=0;orthogonalLoop=1;jettySize=auto;html=1;entryX=0.5;entryY=0;entryDx=0;entryDy=0;exitX=0.5;exitY=1;exitDx=0;exitDy=0;fontSize=16;fillColor=#dae8fc;strokeColor=#6c8ebf;" edge="1" parent="GvEmHx2ohg-FqytH7qWI-132" target="GvEmHx2ohg-FqytH7qWI-138">
          <mxGeometry relative="1" as="geometry">
            <mxPoint x="44.45422535211268" as="sourcePoint" />
          </mxGeometry>
        </mxCell>
        <mxCell id="GvEmHx2ohg-FqytH7qWI-136" value="" style="ellipse;whiteSpace=wrap;html=1;aspect=fixed;fontSize=16;fillColor=#dae8fc;strokeColor=#6c8ebf;" vertex="1" parent="GvEmHx2ohg-FqytH7qWI-132">
          <mxGeometry x="37.71873666239864" y="57.472283813747225" width="13.470977379428083" height="13.470977379428083" as="geometry" />
        </mxCell>
        <mxCell id="GvEmHx2ohg-FqytH7qWI-137" value="" style="ellipse;whiteSpace=wrap;html=1;aspect=fixed;fontSize=16;fillColor=#dae8fc;strokeColor=#6c8ebf;" vertex="1" parent="GvEmHx2ohg-FqytH7qWI-132">
          <mxGeometry y="57.472283813747225" width="13.470977379428083" height="13.470977379428083" as="geometry" />
        </mxCell>
        <mxCell id="GvEmHx2ohg-FqytH7qWI-138" value="" style="ellipse;whiteSpace=wrap;html=1;aspect=fixed;fontSize=16;fillColor=#dae8fc;strokeColor=#6c8ebf;" vertex="1" parent="GvEmHx2ohg-FqytH7qWI-132">
          <mxGeometry x="75.43747332479728" y="57.472283813747225" width="13.470977379428083" height="13.470977379428083" as="geometry" />
        </mxCell>
        <mxCell id="GvEmHx2ohg-FqytH7qWI-139" style="edgeStyle=none;rounded=0;orthogonalLoop=1;jettySize=auto;html=1;exitX=1;exitY=0.5;exitDx=0;exitDy=0;fontSize=16;fillColor=#dae8fc;strokeColor=#6c8ebf;" edge="1" parent="GvEmHx2ohg-FqytH7qWI-132" source="GvEmHx2ohg-FqytH7qWI-136" target="GvEmHx2ohg-FqytH7qWI-136">
          <mxGeometry relative="1" as="geometry" />
        </mxCell>
        <mxCell id="GvEmHx2ohg-FqytH7qWI-140" value="" style="group;fontSize=16;" vertex="1" connectable="0" parent="1">
          <mxGeometry x="649.7253521126761" y="334.6341463414634" width="88.90845070422536" height="105.36585365853658" as="geometry" />
        </mxCell>
        <mxCell id="GvEmHx2ohg-FqytH7qWI-141" style="edgeStyle=none;rounded=0;orthogonalLoop=1;jettySize=auto;html=1;entryX=0.5;entryY=0;entryDx=0;entryDy=0;exitX=0.5;exitY=1;exitDx=0;exitDy=0;fontSize=16;fillColor=#dae8fc;strokeColor=#6c8ebf;" edge="1" parent="GvEmHx2ohg-FqytH7qWI-140" target="GvEmHx2ohg-FqytH7qWI-145">
          <mxGeometry relative="1" as="geometry">
            <mxPoint x="44.45422535211268" as="sourcePoint" />
          </mxGeometry>
        </mxCell>
        <mxCell id="GvEmHx2ohg-FqytH7qWI-142" style="edgeStyle=none;rounded=0;orthogonalLoop=1;jettySize=auto;html=1;entryX=0.5;entryY=0;entryDx=0;entryDy=0;fontSize=16;fillColor=#dae8fc;strokeColor=#6c8ebf;" edge="1" parent="GvEmHx2ohg-FqytH7qWI-140" target="GvEmHx2ohg-FqytH7qWI-144">
          <mxGeometry relative="1" as="geometry">
            <mxPoint x="44.45422535211268" as="sourcePoint" />
          </mxGeometry>
        </mxCell>
        <mxCell id="GvEmHx2ohg-FqytH7qWI-143" style="edgeStyle=none;rounded=0;orthogonalLoop=1;jettySize=auto;html=1;entryX=0.5;entryY=0;entryDx=0;entryDy=0;exitX=0.5;exitY=1;exitDx=0;exitDy=0;fontSize=16;fillColor=#dae8fc;strokeColor=#6c8ebf;" edge="1" parent="GvEmHx2ohg-FqytH7qWI-140" target="GvEmHx2ohg-FqytH7qWI-146">
          <mxGeometry relative="1" as="geometry">
            <mxPoint x="44.45422535211268" as="sourcePoint" />
          </mxGeometry>
        </mxCell>
        <mxCell id="GvEmHx2ohg-FqytH7qWI-144" value="" style="ellipse;whiteSpace=wrap;html=1;aspect=fixed;fontSize=16;fillColor=#dae8fc;strokeColor=#6c8ebf;" vertex="1" parent="GvEmHx2ohg-FqytH7qWI-140">
          <mxGeometry x="37.71873666239864" y="57.472283813747225" width="13.470977379428083" height="13.470977379428083" as="geometry" />
        </mxCell>
        <mxCell id="GvEmHx2ohg-FqytH7qWI-145" value="" style="ellipse;whiteSpace=wrap;html=1;aspect=fixed;fontSize=16;fillColor=#dae8fc;strokeColor=#6c8ebf;" vertex="1" parent="GvEmHx2ohg-FqytH7qWI-140">
          <mxGeometry y="57.472283813747225" width="13.470977379428083" height="13.470977379428083" as="geometry" />
        </mxCell>
        <mxCell id="GvEmHx2ohg-FqytH7qWI-146" value="" style="ellipse;whiteSpace=wrap;html=1;aspect=fixed;fontSize=16;fillColor=#dae8fc;strokeColor=#6c8ebf;" vertex="1" parent="GvEmHx2ohg-FqytH7qWI-140">
          <mxGeometry x="75.43747332479728" y="57.472283813747225" width="13.470977379428083" height="13.470977379428083" as="geometry" />
        </mxCell>
        <mxCell id="GvEmHx2ohg-FqytH7qWI-147" style="edgeStyle=none;rounded=0;orthogonalLoop=1;jettySize=auto;html=1;exitX=1;exitY=0.5;exitDx=0;exitDy=0;fontSize=16;fillColor=#dae8fc;strokeColor=#6c8ebf;" edge="1" parent="GvEmHx2ohg-FqytH7qWI-140" source="GvEmHx2ohg-FqytH7qWI-144" target="GvEmHx2ohg-FqytH7qWI-144">
          <mxGeometry relative="1" as="geometry" />
        </mxCell>
        <mxCell id="GvEmHx2ohg-FqytH7qWI-148" style="edgeStyle=none;rounded=0;orthogonalLoop=1;jettySize=auto;html=1;entryX=0.5;entryY=0;entryDx=0;entryDy=0;exitX=0.5;exitY=1;exitDx=0;exitDy=0;fontSize=16;fillColor=#dae8fc;strokeColor=#6c8ebf;" edge="1" parent="1" target="GvEmHx2ohg-FqytH7qWI-152">
          <mxGeometry relative="1" as="geometry">
            <mxPoint x="909.3380281690141" y="228.82365853658536" as="sourcePoint" />
          </mxGeometry>
        </mxCell>
        <mxCell id="GvEmHx2ohg-FqytH7qWI-149" style="edgeStyle=none;rounded=0;orthogonalLoop=1;jettySize=auto;html=1;entryX=0.5;entryY=0;entryDx=0;entryDy=0;fontSize=16;fillColor=#dae8fc;strokeColor=#6c8ebf;" edge="1" parent="1" target="GvEmHx2ohg-FqytH7qWI-151">
          <mxGeometry relative="1" as="geometry">
            <mxPoint x="909.3380281690141" y="228.82365853658536" as="sourcePoint" />
          </mxGeometry>
        </mxCell>
        <mxCell id="GvEmHx2ohg-FqytH7qWI-150" style="edgeStyle=none;rounded=0;orthogonalLoop=1;jettySize=auto;html=1;entryX=0.5;entryY=0;entryDx=0;entryDy=0;exitX=0.5;exitY=1;exitDx=0;exitDy=0;fontSize=16;fillColor=#dae8fc;strokeColor=#6c8ebf;" edge="1" parent="1" target="GvEmHx2ohg-FqytH7qWI-153">
          <mxGeometry relative="1" as="geometry">
            <mxPoint x="909.3380281690141" y="228.82365853658536" as="sourcePoint" />
          </mxGeometry>
        </mxCell>
        <mxCell id="GvEmHx2ohg-FqytH7qWI-151" value="" style="ellipse;whiteSpace=wrap;html=1;aspect=fixed;fontSize=16;fillColor=#dae8fc;strokeColor=#6c8ebf;" vertex="1" parent="1">
          <mxGeometry x="891.5563380281691" y="299.0675609756097" width="35.563380281690144" height="35.563380281690144" as="geometry" />
        </mxCell>
        <mxCell id="GvEmHx2ohg-FqytH7qWI-152" value="" style="ellipse;whiteSpace=wrap;html=1;aspect=fixed;fontSize=16;fillColor=#dae8fc;strokeColor=#6c8ebf;" vertex="1" parent="1">
          <mxGeometry x="791.9788732394367" y="299.0675609756097" width="35.563380281690144" height="35.563380281690144" as="geometry" />
        </mxCell>
        <mxCell id="GvEmHx2ohg-FqytH7qWI-153" value="" style="ellipse;whiteSpace=wrap;html=1;aspect=fixed;fontSize=16;fillColor=#dae8fc;strokeColor=#6c8ebf;" vertex="1" parent="1">
          <mxGeometry x="991.1338028169015" y="299.0675609756097" width="35.563380281690144" height="35.563380281690144" as="geometry" />
        </mxCell>
        <mxCell id="GvEmHx2ohg-FqytH7qWI-154" style="edgeStyle=none;rounded=0;orthogonalLoop=1;jettySize=auto;html=1;exitX=1;exitY=0.5;exitDx=0;exitDy=0;fontSize=16;fillColor=#dae8fc;strokeColor=#6c8ebf;" edge="1" parent="1" source="GvEmHx2ohg-FqytH7qWI-151" target="GvEmHx2ohg-FqytH7qWI-151">
          <mxGeometry relative="1" as="geometry" />
        </mxCell>
        <mxCell id="GvEmHx2ohg-FqytH7qWI-155" value="" style="group;fontSize=16;" vertex="1" connectable="0" parent="1">
          <mxGeometry x="765.661971830986" y="334.6341463414634" width="88.90845070422536" height="105.36585365853658" as="geometry" />
        </mxCell>
        <mxCell id="GvEmHx2ohg-FqytH7qWI-156" style="edgeStyle=none;rounded=0;orthogonalLoop=1;jettySize=auto;html=1;entryX=0.5;entryY=0;entryDx=0;entryDy=0;exitX=0.5;exitY=1;exitDx=0;exitDy=0;fontSize=16;fillColor=#dae8fc;strokeColor=#6c8ebf;" edge="1" parent="GvEmHx2ohg-FqytH7qWI-155" target="GvEmHx2ohg-FqytH7qWI-160">
          <mxGeometry relative="1" as="geometry">
            <mxPoint x="44.45422535211268" as="sourcePoint" />
          </mxGeometry>
        </mxCell>
        <mxCell id="GvEmHx2ohg-FqytH7qWI-157" style="edgeStyle=none;rounded=0;orthogonalLoop=1;jettySize=auto;html=1;entryX=0.5;entryY=0;entryDx=0;entryDy=0;fontSize=16;fillColor=#dae8fc;strokeColor=#6c8ebf;" edge="1" parent="GvEmHx2ohg-FqytH7qWI-155" target="GvEmHx2ohg-FqytH7qWI-159">
          <mxGeometry relative="1" as="geometry">
            <mxPoint x="44.45422535211268" as="sourcePoint" />
          </mxGeometry>
        </mxCell>
        <mxCell id="GvEmHx2ohg-FqytH7qWI-158" style="edgeStyle=none;rounded=0;orthogonalLoop=1;jettySize=auto;html=1;entryX=0.5;entryY=0;entryDx=0;entryDy=0;exitX=0.5;exitY=1;exitDx=0;exitDy=0;fontSize=16;fillColor=#dae8fc;strokeColor=#6c8ebf;" edge="1" parent="GvEmHx2ohg-FqytH7qWI-155" target="GvEmHx2ohg-FqytH7qWI-161">
          <mxGeometry relative="1" as="geometry">
            <mxPoint x="44.45422535211268" as="sourcePoint" />
          </mxGeometry>
        </mxCell>
        <mxCell id="GvEmHx2ohg-FqytH7qWI-159" value="" style="ellipse;whiteSpace=wrap;html=1;aspect=fixed;fontSize=16;fillColor=#dae8fc;strokeColor=#6c8ebf;" vertex="1" parent="GvEmHx2ohg-FqytH7qWI-155">
          <mxGeometry x="37.71873666239864" y="57.472283813747225" width="13.470977379428083" height="13.470977379428083" as="geometry" />
        </mxCell>
        <mxCell id="GvEmHx2ohg-FqytH7qWI-160" value="" style="ellipse;whiteSpace=wrap;html=1;aspect=fixed;fontSize=16;fillColor=#dae8fc;strokeColor=#6c8ebf;" vertex="1" parent="GvEmHx2ohg-FqytH7qWI-155">
          <mxGeometry y="57.472283813747225" width="13.470977379428083" height="13.470977379428083" as="geometry" />
        </mxCell>
        <mxCell id="GvEmHx2ohg-FqytH7qWI-161" value="" style="ellipse;whiteSpace=wrap;html=1;aspect=fixed;fontSize=16;fillColor=#dae8fc;strokeColor=#6c8ebf;" vertex="1" parent="GvEmHx2ohg-FqytH7qWI-155">
          <mxGeometry x="75.43747332479728" y="57.472283813747225" width="13.470977379428083" height="13.470977379428083" as="geometry" />
        </mxCell>
        <mxCell id="GvEmHx2ohg-FqytH7qWI-162" style="edgeStyle=none;rounded=0;orthogonalLoop=1;jettySize=auto;html=1;exitX=1;exitY=0.5;exitDx=0;exitDy=0;fontSize=16;fillColor=#dae8fc;strokeColor=#6c8ebf;" edge="1" parent="GvEmHx2ohg-FqytH7qWI-155" source="GvEmHx2ohg-FqytH7qWI-159" target="GvEmHx2ohg-FqytH7qWI-159">
          <mxGeometry relative="1" as="geometry" />
        </mxCell>
        <mxCell id="GvEmHx2ohg-FqytH7qWI-163" value="" style="group;fontSize=16;" vertex="1" connectable="0" parent="1">
          <mxGeometry x="864.8838028169015" y="334.6341463414634" width="88.90845070422536" height="105.36585365853658" as="geometry" />
        </mxCell>
        <mxCell id="GvEmHx2ohg-FqytH7qWI-164" style="edgeStyle=none;rounded=0;orthogonalLoop=1;jettySize=auto;html=1;entryX=0.5;entryY=0;entryDx=0;entryDy=0;exitX=0.5;exitY=1;exitDx=0;exitDy=0;fontSize=16;fillColor=#dae8fc;strokeColor=#6c8ebf;" edge="1" parent="GvEmHx2ohg-FqytH7qWI-163" target="GvEmHx2ohg-FqytH7qWI-168">
          <mxGeometry relative="1" as="geometry">
            <mxPoint x="44.45422535211268" as="sourcePoint" />
          </mxGeometry>
        </mxCell>
        <mxCell id="GvEmHx2ohg-FqytH7qWI-165" style="edgeStyle=none;rounded=0;orthogonalLoop=1;jettySize=auto;html=1;entryX=0.5;entryY=0;entryDx=0;entryDy=0;fontSize=16;fillColor=#dae8fc;strokeColor=#6c8ebf;" edge="1" parent="GvEmHx2ohg-FqytH7qWI-163" target="GvEmHx2ohg-FqytH7qWI-167">
          <mxGeometry relative="1" as="geometry">
            <mxPoint x="44.45422535211268" as="sourcePoint" />
          </mxGeometry>
        </mxCell>
        <mxCell id="GvEmHx2ohg-FqytH7qWI-166" style="edgeStyle=none;rounded=0;orthogonalLoop=1;jettySize=auto;html=1;entryX=0.5;entryY=0;entryDx=0;entryDy=0;exitX=0.5;exitY=1;exitDx=0;exitDy=0;fontSize=16;fillColor=#dae8fc;strokeColor=#6c8ebf;" edge="1" parent="GvEmHx2ohg-FqytH7qWI-163" target="GvEmHx2ohg-FqytH7qWI-169">
          <mxGeometry relative="1" as="geometry">
            <mxPoint x="44.45422535211268" as="sourcePoint" />
          </mxGeometry>
        </mxCell>
        <mxCell id="GvEmHx2ohg-FqytH7qWI-167" value="" style="ellipse;whiteSpace=wrap;html=1;aspect=fixed;fontSize=16;fillColor=#dae8fc;strokeColor=#6c8ebf;" vertex="1" parent="GvEmHx2ohg-FqytH7qWI-163">
          <mxGeometry x="37.71873666239864" y="57.472283813747225" width="13.470977379428083" height="13.470977379428083" as="geometry" />
        </mxCell>
        <mxCell id="GvEmHx2ohg-FqytH7qWI-168" value="" style="ellipse;whiteSpace=wrap;html=1;aspect=fixed;fontSize=16;fillColor=#dae8fc;strokeColor=#6c8ebf;" vertex="1" parent="GvEmHx2ohg-FqytH7qWI-163">
          <mxGeometry y="57.472283813747225" width="13.470977379428083" height="13.470977379428083" as="geometry" />
        </mxCell>
        <mxCell id="GvEmHx2ohg-FqytH7qWI-169" value="" style="ellipse;whiteSpace=wrap;html=1;aspect=fixed;fontSize=16;fillColor=#dae8fc;strokeColor=#6c8ebf;" vertex="1" parent="GvEmHx2ohg-FqytH7qWI-163">
          <mxGeometry x="75.43747332479728" y="57.472283813747225" width="13.470977379428083" height="13.470977379428083" as="geometry" />
        </mxCell>
        <mxCell id="GvEmHx2ohg-FqytH7qWI-170" style="edgeStyle=none;rounded=0;orthogonalLoop=1;jettySize=auto;html=1;exitX=1;exitY=0.5;exitDx=0;exitDy=0;fontSize=16;fillColor=#dae8fc;strokeColor=#6c8ebf;" edge="1" parent="GvEmHx2ohg-FqytH7qWI-163" source="GvEmHx2ohg-FqytH7qWI-167" target="GvEmHx2ohg-FqytH7qWI-167">
          <mxGeometry relative="1" as="geometry" />
        </mxCell>
        <mxCell id="GvEmHx2ohg-FqytH7qWI-171" value="" style="group;fontSize=16;" vertex="1" connectable="0" parent="1">
          <mxGeometry x="962.6830985915493" y="334.6341463414634" width="88.90845070422536" height="105.36585365853658" as="geometry" />
        </mxCell>
        <mxCell id="GvEmHx2ohg-FqytH7qWI-172" style="edgeStyle=none;rounded=0;orthogonalLoop=1;jettySize=auto;html=1;entryX=0.5;entryY=0;entryDx=0;entryDy=0;exitX=0.5;exitY=1;exitDx=0;exitDy=0;fontSize=16;fillColor=#dae8fc;strokeColor=#6c8ebf;" edge="1" parent="GvEmHx2ohg-FqytH7qWI-171" target="GvEmHx2ohg-FqytH7qWI-176">
          <mxGeometry relative="1" as="geometry">
            <mxPoint x="44.45422535211268" as="sourcePoint" />
          </mxGeometry>
        </mxCell>
        <mxCell id="GvEmHx2ohg-FqytH7qWI-173" style="edgeStyle=none;rounded=0;orthogonalLoop=1;jettySize=auto;html=1;entryX=0.5;entryY=0;entryDx=0;entryDy=0;fontSize=16;fillColor=#dae8fc;strokeColor=#6c8ebf;" edge="1" parent="GvEmHx2ohg-FqytH7qWI-171" target="GvEmHx2ohg-FqytH7qWI-175">
          <mxGeometry relative="1" as="geometry">
            <mxPoint x="44.45422535211268" as="sourcePoint" />
          </mxGeometry>
        </mxCell>
        <mxCell id="GvEmHx2ohg-FqytH7qWI-174" style="edgeStyle=none;rounded=0;orthogonalLoop=1;jettySize=auto;html=1;entryX=0.5;entryY=0;entryDx=0;entryDy=0;exitX=0.5;exitY=1;exitDx=0;exitDy=0;fontSize=16;fillColor=#dae8fc;strokeColor=#6c8ebf;" edge="1" parent="GvEmHx2ohg-FqytH7qWI-171" target="GvEmHx2ohg-FqytH7qWI-177">
          <mxGeometry relative="1" as="geometry">
            <mxPoint x="44.45422535211268" as="sourcePoint" />
          </mxGeometry>
        </mxCell>
        <mxCell id="GvEmHx2ohg-FqytH7qWI-175" value="" style="ellipse;whiteSpace=wrap;html=1;aspect=fixed;fontSize=16;fillColor=#dae8fc;strokeColor=#6c8ebf;" vertex="1" parent="GvEmHx2ohg-FqytH7qWI-171">
          <mxGeometry x="37.71873666239864" y="57.472283813747225" width="13.470977379428083" height="13.470977379428083" as="geometry" />
        </mxCell>
        <mxCell id="GvEmHx2ohg-FqytH7qWI-176" value="" style="ellipse;whiteSpace=wrap;html=1;aspect=fixed;fontSize=16;fillColor=#dae8fc;strokeColor=#6c8ebf;" vertex="1" parent="GvEmHx2ohg-FqytH7qWI-171">
          <mxGeometry y="57.472283813747225" width="13.470977379428083" height="13.470977379428083" as="geometry" />
        </mxCell>
        <mxCell id="GvEmHx2ohg-FqytH7qWI-177" value="" style="ellipse;whiteSpace=wrap;html=1;aspect=fixed;fontSize=16;fillColor=#dae8fc;strokeColor=#6c8ebf;" vertex="1" parent="GvEmHx2ohg-FqytH7qWI-171">
          <mxGeometry x="75.43747332479728" y="57.472283813747225" width="13.470977379428083" height="13.470977379428083" as="geometry" />
        </mxCell>
        <mxCell id="GvEmHx2ohg-FqytH7qWI-178" style="edgeStyle=none;rounded=0;orthogonalLoop=1;jettySize=auto;html=1;exitX=1;exitY=0.5;exitDx=0;exitDy=0;fontSize=16;fillColor=#dae8fc;strokeColor=#6c8ebf;" edge="1" parent="GvEmHx2ohg-FqytH7qWI-171" source="GvEmHx2ohg-FqytH7qWI-175" target="GvEmHx2ohg-FqytH7qWI-175">
          <mxGeometry relative="1" as="geometry" />
        </mxCell>
        <mxCell id="GvEmHx2ohg-FqytH7qWI-179" value="L1" style="text;html=1;align=center;verticalAlign=middle;resizable=0;points=[];autosize=1;strokeColor=none;fillColor=none;fontSize=16;" vertex="1" parent="1">
          <mxGeometry x="109.0343661971831" y="62.90024390243903" width="30" height="20" as="geometry" />
        </mxCell>
        <mxCell id="GvEmHx2ohg-FqytH7qWI-180" value="L2" style="text;html=1;align=center;verticalAlign=middle;resizable=0;points=[];autosize=1;strokeColor=none;fillColor=none;fontSize=16;" vertex="1" parent="1">
          <mxGeometry x="104.8969014084507" y="203.3880487804878" width="30" height="20" as="geometry" />
        </mxCell>
        <mxCell id="GvEmHx2ohg-FqytH7qWI-181" value="L3" style="text;html=1;align=center;verticalAlign=middle;resizable=0;points=[];autosize=1;strokeColor=none;fillColor=none;fontSize=16;" vertex="1" parent="1">
          <mxGeometry x="104.8943661971831" y="306.84487804878046" width="30" height="20" as="geometry" />
        </mxCell>
        <mxCell id="GvEmHx2ohg-FqytH7qWI-182" value="L4" style="text;html=1;align=center;verticalAlign=middle;resizable=0;points=[];autosize=1;strokeColor=none;fillColor=none;fontSize=16;" vertex="1" parent="1">
          <mxGeometry x="104.8943661971831" y="390.000731707317" width="30" height="20" as="geometry" />
        </mxCell>
        <mxCell id="GvEmHx2ohg-FqytH7qWI-184" value="三叉树" style="text;html=1;align=center;verticalAlign=middle;resizable=0;points=[];autosize=1;strokeColor=none;fillColor=none;fontSize=16;" vertex="1" parent="1">
          <mxGeometry x="570.7746478873239" y="19.99731707317073" width="60" height="20" as="geometry" />
        </mxCell>
      </root>
    </mxGraphModel>
  </diagram>
</mxfile>
